<svg id="svg" version="1.1" xmlns="http://www.w3.org/2000/svg" xmlns:xlink="http://www.w3.org/1999/xlink" width="400" height="400" viewBox="0, 0, 400,400"><g id="svgg"><path id="path0" d="M199.833 200.000 L 199.833 400.000 249.833 400.000 L 299.832 400.000 299.874 374.958 L 299.917 349.917 324.917 349.917 L 349.917 349.917 349.917 224.875 L 349.917 99.833 324.874 99.833 L 299.831 99.833 299.874 74.833 L 299.917 49.833 274.875 49.833 L 249.833 49.833 249.833 24.917 L 249.833 0.000 224.833 0.000 L 199.833 0.000 199.833 200.000 " stroke="none" fill="#84cc74" fill-rule="evenodd"></path><path id="path1" d="M149.833 24.917 L 149.833 49.833 124.833 49.833 L 99.833 49.833 99.833 74.833 L 99.833 99.833 74.833 99.833 L 49.833 99.833 49.833 224.917 L 49.833 350.000 74.833 350.000 L 99.833 350.000 99.833 375.000 L 99.833 400.000 149.833 400.000 L 199.833 400.000 199.833 200.000 L 199.833 0.000 174.833 0.000 L 149.833 0.000 149.833 24.917 " stroke="none" fill="#4cbc64" fill-rule="evenodd"></path><path id="path2" d="M249.915 24.917 C 249.915 38.667,249.934 44.267,249.958 37.362 C 249.982 30.457,249.982 19.207,249.958 12.362 C 249.934 5.517,249.915 11.167,249.915 24.917 M299.915 74.917 C 299.915 88.667,299.934 94.267,299.958 87.362 C 299.982 80.457,299.982 69.207,299.958 62.362 C 299.934 55.517,299.915 61.167,299.915 74.917 M349.875 224.874 L 349.833 349.832 324.875 349.874 L 299.917 349.917 299.916 374.958 L 299.915 400.000 299.958 375.000 L 300.001 350.000 324.922 350.000 C 344.706 350.000,349.860 349.957,349.923 349.792 C 349.966 349.677,349.983 293.408,349.959 224.750 L 349.916 99.917 349.875 224.874 " stroke="none" fill="#88c46c" fill-rule="evenodd"></path><path id="path3" d="M249.915 24.917 C 249.915 38.667,249.934 44.267,249.958 37.362 C 249.982 30.457,249.982 19.207,249.958 12.362 C 249.934 5.517,249.915 11.167,249.915 24.917 M299.915 74.917 C 299.915 88.667,299.934 94.267,299.958 87.362 C 299.982 80.457,299.982 69.207,299.958 62.362 C 299.934 55.517,299.915 61.167,299.915 74.917 M349.875 224.874 L 349.833 349.832 324.875 349.874 L 299.917 349.917 299.916 374.958 L 299.915 400.000 299.958 375.000 L 300.001 350.000 324.922 350.000 C 344.706 350.000,349.860 349.957,349.923 349.792 C 349.966 349.677,349.983 293.408,349.959 224.750 L 349.916 99.917 349.875 224.874 " stroke="none" fill="#88c46c" fill-rule="evenodd"></path><path id="path4" d="M249.915 24.917 C 249.915 38.667,249.934 44.267,249.958 37.362 C 249.982 30.457,249.982 19.207,249.958 12.362 C 249.934 5.517,249.915 11.167,249.915 24.917 M299.915 74.917 C 299.915 88.667,299.934 94.267,299.958 87.362 C 299.982 80.457,299.982 69.207,299.958 62.362 C 299.934 55.517,299.915 61.167,299.915 74.917 M349.875 224.874 L 349.833 349.832 324.875 349.874 L 299.917 349.917 299.916 374.958 L 299.915 400.000 299.958 375.000 L 300.001 350.000 324.922 350.000 C 344.706 350.000,349.860 349.957,349.923 349.792 C 349.966 349.677,349.983 293.408,349.959 224.750 L 349.916 99.917 349.875 224.874 " stroke="none" fill="#88c46c" fill-rule="evenodd"></path></g></svg>